<svg width="149" height="30" viewBox="0 0 149 30" fill="none" xmlns="http://www.w3.org/2000/svg">
<g clip-path="url(#clip0_32_548)">
<path d="M5.127 25.3994V0.624268H0.0375671V29.99H19.59V25.3994H5.127Z" fill="#1F2A35"/>
<path d="M42.9643 5.16001V0.624268H23.6536V29.99H42.9643V25.3994H28.7426V17.2748H41.0131V12.6837H28.7426V5.16001H42.9643Z" fill="#1F2A35"/>
<path d="M70.8848 29.99H76.3964L61.1488 0.0231934H60.8473L45.5992 29.99H51.1114L53.3236 25.5267H68.672L70.8848 29.99ZM55.2951 21.5739L61.0079 10.0969L66.7005 21.5739H55.2951Z" fill="#1F2A35"/>
<path d="M104.076 29.99L94.6412 18.2402C98.3627 17.1469 101.058 13.8499 101.058 10.0607C101.058 4.83232 96.1094 0.624268 90.0748 0.624268H79.9968L80.0171 29.99H85.1065V18.6228H89.089L97.8194 29.99C97.8194 29.99 104.075 29.99 104.076 29.99ZM85.0862 14.7973V5.19675H90.1954C93.213 5.19675 95.8079 7.21873 95.8079 9.95145C95.8079 12.5744 93.253 14.8154 90.1954 14.7973H85.0862Z" fill="#1F2A35"/>
<path d="M112.584 25.3994L112.584 0.624268H107.495V29.99H127.047V25.3994H112.584Z" fill="#1F2A35"/>
<path d="M133.182 29.99H138.231V17.4384L148.994 0.624268H143.26L135.697 12.3197L128.154 0.624268H122.421L133.182 17.4384V29.99Z" fill="#1F2A35"/>
</g>
<defs>
<clipPath id="clip0_32_548">
<rect width="149" height="30" fill="white"/>
</clipPath>
</defs>
</svg>
